<?xml version="1.0" encoding="utf-8"?>
<!-- Generator: Adobe Illustrator 21.0.0, SVG Export Plug-In . SVG Version: 6.00 Build 0)  -->
<svg version="1.1" id="Layer_1" xmlns="http://www.w3.org/2000/svg" xmlns:xlink="http://www.w3.org/1999/xlink" x="0px" y="0px"
	 viewBox="0 0 928 800" style="enable-background:new 0 0 928 800;" xml:space="preserve">
<style type="text/css">
	.st0{fill:#283992;}
	.st1{fill:#00A64E;}
	.st2{fill:#FFFFFF;}
	.st3{fill:#283991;}
	.st4{fill:#00A44E;}
</style>
<g>
	<g>
		<path class="st0" d="M1002.4,759v-68.3c0-9.6,4-17.3,12.2-23.4c8.1-6.2,18.7-9.2,32.3-9.2h80.9v19.2h-77.1
			c-13.6,0-20.4,4.7-20.4,14.1v66.3c0,4,1.9,7.4,5.9,10.1c3.9,2.8,8.7,4.2,14.4,4.2h76.5v19h-82.3c-7.9,0-16-1.7-24.2-5.6
			C1008.5,779.9,1002.4,771,1002.4,759z"/>
		<path class="st0" d="M1137.2,791l64.1-120.7c4.9-9.3,12.1-13.9,21.5-13.9c10.6,0,18.4,4.6,23.3,13.9l63.7,120.7h-29.9l-13.9-27.8
			h-84.2l-14.7,27.8H1137.2z M1255.3,743.9l-32-60.9l-31.2,60.9H1255.3z"/>
		<path class="st0" d="M1323.5,791V658.1h97.7c18.2,0,31.2,6.2,38.3,18.5c1.9,3.2,2.7,6.5,2.7,9.5v16c0,10-5.4,17.4-16.3,21.9
			c8.3,2.8,13.7,8.3,15.8,16.2c0.5,0.9,0.5,2.2,0.5,4.2v12.3c0,22.8-14.7,34.5-44.2,34.5c-2.6,0-10.3,0-23.7,0
			C1378.5,791,1355,791,1323.5,791z M1415.1,715.6c5.9,0,10.4-1.2,13.8-3.7c3.7-2.2,5.4-5.5,5.4-9.4v-12.9c0-6.5-5.5-10.4-16.3-12
			c-1.2-0.2-2.1-0.3-3.3-0.3h-63.6v38.3L1415.1,715.6L1415.1,715.6z M1351.1,771.9h63.4c7.2,0,12.7-2.4,16.7-7.2
			c2-2.5,3.1-4.7,3.1-6.9v-12.6c0-3.8-3.5-7-10.5-9.3c-2.7-0.8-5.8-1.3-8.8-1.3h-63.9V771.9L1351.1,771.9z"/>
		<path class="st0" d="M1493.9,757.6v-99.5h27.8v99.5c0,5.3,1.8,9,5.4,11.2c3.5,2,9.3,3.2,17.1,3.2h72.9v19h-72.4
			c-16,0-28.6-2.7-37.1-8.2C1498.4,777,1493.9,768.7,1493.9,757.6z"/>
		<path class="st0" d="M1635.4,755.4v-64.1c0-12.1,5.1-20.9,15.4-26.3c9.1-4.6,22.7-6.9,40.8-6.9h70.2v19.2h-80.9
			c-5.1,0-9.1,1.4-12.5,4.5c-3.3,3.1-5,6.4-5,10.1v22.6h98.3v19.2h-98.3V760c0,1.3,0.4,2.6,1.4,3.8c2.6,4.1,7,6.6,12.3,7.5
			c2.8,0.5,8.4,0.8,17,0.8h67.1V791h-74.6C1652.4,791,1635.4,779.1,1635.4,755.4z"/>
		<path class="st0" d="M1786.9,791v-19.1h76.4c0.5,0,1,0,1.6,0h1.5c3.9-0.3,7.4-1.4,10.6-3.6c3.2-2,4.8-4.7,4.8-7.4v-17.1
			c0-6.4-5.7-10.2-17.2-11c-0.5-0.1-1.5-0.1-3.1-0.1h-28.8c-11.9,0-22.4-2.4-31.3-7.2c-9.6-5-14.4-11.7-14.4-19.8v-16.8
			c0-13.9,7.9-23.2,23.9-28.5c5-1.6,12.4-2.3,22.3-2.3h77.9v19.2h-80.4c-0.5,0.1-1.1,0.1-1.4,0.1c-9.6,1-14.3,4.6-14.3,10.7v13.1
			c0,9.3,6,13.8,18.1,13.8h33.4c8.5,0,16.3,1.5,23.6,4.5c13.1,5.3,19.6,12.3,19.6,21.4v20.8c0,10.3-5.9,18.4-17.9,24
			c-7.4,3.7-16,5.4-25.3,5.4h-79.6V791z"/>
	</g>
	<polygon class="st0" points="1269.4,407 1461.9,618.5 1012.5,618.5 1012.5,191.4 1461.9,191.4 	"/>
	<g>
		<path class="st1" d="M1904.5,197.7h-396.2l-168.1,186.4c-1.4,5-2,10.1-2,15.2c0,6.6,1.1,13,3,19.3l176.7,200.1h386.6l-192.6-213.8
			L1904.5,197.7z"/>
	</g>
	<g>
		<path class="st0" d="M1005.8,11.3h30.1v133h-30.1V11.3z M1044,66.8c-3.9,3.1-5.9,5.9-5.9,8.4c0,3.7,4.2,8.7,12.5,15.4l68.7,53.7
			l39.7,0.1L1071.3,76l83.6-64.7h-39.5l-63.3,48.9L1044,66.8z"/>
		<path class="st0" d="M1174.5,108.6v-64c0-12.1,5.6-21,16.9-26.2c9.6-4.8,24.4-7,44.2-7h76.7v19.1h-88.4c-5.6,0-10.3,1.6-13.9,4.5
			c-3.7,3.2-5.4,6.4-5.4,10.1v22.6h107.3v19.2h-107.1V113c0,1.5,0.4,2.8,1.4,4c3,3.8,7.5,6.4,13.5,7.5c2.9,0.5,9.1,0.7,18.7,0.7
			h73.1v19.1h-81C1193.1,144.3,1174.5,132.4,1174.5,108.6z"/>
		<path class="st0" d="M1344.9,110.8V11.3h30.1v99.4c0,5.4,2,9.1,6,11.2c3.9,2.2,10,3.2,18.7,3.2h79.4v19.1h-78.8
			c-17.5,0-31-2.8-40.4-8.2C1350,130.2,1344.9,122,1344.9,110.8z"/>
		<path class="st0" d="M1478.5,144.3l69.6-120.8c5.6-9.2,13.3-14,23.5-14c11.5,0,20.1,4.8,25.4,13.9l69.2,120.8H1634l-16.1-27.9
			h-91.1l-16.1,27.9h-32.2V144.3z M1606.5,97.3l-34.8-60.6l-33.9,60.6H1606.5z"/>
		<path class="st0" d="M1681.9,144.3V29.4c0-13.2,8.3-19.9,25-19.9c3,0,6.1,0.4,9.8,0.9c7.9,1.2,14.2,5.5,18.8,13l63.7,98.5V11.3
			h30.1v117.1c0,4.5-2.2,8.4-6.4,11.9c-4.5,3.3-10.2,5.3-17.5,5.7c-13.4,1.1-23.2-3.4-29.9-13.3l-63.4-95.9v107.5L1681.9,144.3
			L1681.9,144.3z"/>
		<path class="st0" d="M1865.9,144.3v-133h30v133H1865.9z"/>
	</g>
</g>
<g>
	<path class="st2" d="M912.6,625.1c0,68.9-53.7,124.7-119.9,124.7H143.1c-66.2,0-119.9-55.8-119.9-124.7V191.4
		c0-68.9,53.7-124.8,119.9-124.8h649.6c66.2,0,119.9,55.9,119.9,124.8V625.1z"/>
	<g>
		<g>
			<path class="st3" d="M157.1,653.7v-46.8c0-6.6,2.7-11.9,8.4-16c5.5-4.2,12.8-6.3,22.1-6.3h55.4v13.1h-52.8
				c-9.3,0-13.9,3.2-13.9,9.6v45.4c0,2.7,1.3,5,4,6.9c2.7,1.9,6,2.9,9.9,2.9h52.3v13.1h-56.4c-5.4,0-11-1.2-16.6-3.9
				C161.3,668,157.1,661.8,157.1,653.7z"/>
			<path class="st3" d="M249.3,675.5l43.9-82.6c3.3-6.4,8.3-9.5,14.7-9.5c7.3,0,12.6,3.1,15.9,9.5l43.6,82.6h-20.4l-9.5-19h-57.6
				l-10.1,19H249.3z M330,643.3l-21.9-41.6l-21.3,41.6H330z"/>
			<path class="st3" d="M376.8,675.5v-90.9h66.8c12.5,0,21.3,4.3,26.2,12.7c1.3,2.2,1.8,4.4,1.8,6.5v10.9c0,6.9-3.7,11.9-11.2,15
				c5.7,1.9,9.3,5.7,10.8,11.1c0.3,0.6,0.4,1.5,0.4,2.9v8.4c0,15.6-10.1,23.6-30.2,23.6c-1.8,0-7.1,0-16.2,0
				C414.3,675.5,398.3,675.5,376.8,675.5z M439.4,623.9c4,0,7.1-0.8,9.4-2.5c2.5-1.5,3.7-3.8,3.7-6.4v-8.8c0-4.4-3.8-7.1-11.1-8.2
				c-0.8-0.1-1.4-0.2-2.2-0.2h-43.5v26.2H439.4z M395.6,662.5H439c4.9,0,8.7-1.6,11.4-4.9c1.3-1.7,2.1-3.2,2.1-4.7v-8.6
				c0-2.6-2.4-4.8-7.2-6.4c-1.8-0.5-4-0.9-6-0.9h-43.7V662.5z"/>
			<path class="st3" d="M493.3,652.7v-68.1h19v68c0,3.6,1.3,6.2,3.7,7.7c2.4,1.3,6.3,2.2,11.7,2.2h49.9v13.1h-49.5
				c-11,0-19.5-1.8-25.4-5.6C496.4,666,493.3,660.3,493.3,652.7z"/>
			<path class="st3" d="M590.1,651.2v-43.9c0-8.3,3.5-14.3,10.5-18c6.2-3.1,15.5-4.7,27.9-4.7h48.1v13.1h-55.4
				c-3.5,0-6.2,0.9-8.6,3.1c-2.2,2.1-3.4,4.4-3.4,6.9v15.5h67.3v13.1h-67.3v18c0,0.9,0.3,1.8,1,2.6c1.8,2.8,4.8,4.5,8.4,5.1
				c1.9,0.4,5.7,0.5,11.6,0.5h45.9v13.1h-51C601.8,675.5,590.1,667.4,590.1,651.2z"/>
			<path class="st3" d="M693.7,675.5v-13.1H746c0.4,0,0.7,0,1.1,0h1c2.7-0.2,5.1-0.9,7.3-2.5c2.2-1.4,3.3-3.2,3.3-5.1v-11.7
				c0-4.4-3.9-7-11.8-7.5c-0.3-0.1-1-0.1-2.1-0.1h-19.7c-8.2,0-15.3-1.7-21.4-4.9c-6.6-3.4-9.9-8-9.9-13.6v-11.5
				c0-9.5,5.4-15.9,16.3-19.5c3.4-1.1,8.5-1.6,15.2-1.6h53.3v13.1h-55c-0.3,0.1-0.7,0.1-0.9,0.1c-6.6,0.7-9.8,3.1-9.8,7.3v8.9
				c0,6.3,4.1,9.4,12.4,9.4h23c5.8,0,11.1,1,16.1,3.1c9,3.6,13.4,8.4,13.4,14.6v14.2c0,7.1-4,12.6-12.3,16.4
				c-5.1,2.5-11,3.7-17.3,3.7H693.7z"/>
		</g>
		<polygon class="st3" points="339.7,412.8 471.4,557.6 164,557.6 164,265.3 471.4,265.3 		"/>
		<g>
			<path class="st4" d="M774.2,269.6H503.2l-115,127.5c-0.9,3.4-1.4,6.9-1.4,10.4c0,4.5,0.8,8.9,2.1,13.2l120.9,136.9h264.5
				L642.5,411.4L774.2,269.6z"/>
		</g>
		<g>
			<path class="st3" d="M159.4,142.1H180v91h-20.6V142.1z M185.5,180.1c-2.6,2.1-4,4-4,5.7c0,2.5,2.9,6,8.5,10.5l47,36.7l27.2,0
				l-60-46.7l57.2-44.3h-27L191,175.6L185.5,180.1z"/>
			<path class="st3" d="M274.8,208.7v-43.8c0-8.3,3.9-14.4,11.6-17.9c6.6-3.3,16.7-4.8,30.3-4.8h52.5v13.1h-60.5
				c-3.8,0-7.1,1.1-9.5,3.1c-2.6,2.2-3.7,4.4-3.7,6.9v15.5h73.4v13.1h-73.4v17.9c0,1.1,0.3,1.9,1,2.7c2.1,2.6,5.1,4.4,9.3,5.1
				c2,0.4,6.2,0.5,12.8,0.5h50v13.1h-55.4C287.6,233.1,274.8,225,274.8,208.7z"/>
			<path class="st3" d="M391.4,210.2v-68.1H412v68c0,3.7,1.3,6.2,4.1,7.7c2.7,1.5,6.9,2.2,12.8,2.2h54.3v13.1h-53.9
				c-12,0-21.2-1.9-27.7-5.6C394.9,223.5,391.4,217.8,391.4,210.2z"/>
			<path class="st3" d="M482.7,233.1l47.6-82.6c3.8-6.3,9.1-9.6,16.1-9.6c7.9,0,13.7,3.3,17.4,9.5l47.3,82.7h-22l-11-19.1h-62.3
				l-11,19.1H482.7z M570.4,201l-23.8-41.5L523.3,201H570.4z"/>
			<path class="st3" d="M621.9,233.1v-78.6c0-9.1,5.7-13.6,17.1-13.6c2,0,4.2,0.2,6.7,0.6c5.4,0.8,9.7,3.8,12.8,8.9l43.6,67.4v-75.7
				h20.6v80.1c0,3.1-1.5,5.8-4.4,8.1c-3.1,2.3-7,3.6-12,3.9c-9.2,0.7-15.9-2.3-20.4-9.1l-43.3-65.6v73.6H621.9z"/>
			<path class="st3" d="M747.8,233.1v-91h20.5v91H747.8z"/>
		</g>
	</g>
</g>
</svg>
