<?xml version="1.0" encoding="utf-8"?>
<!-- Generator: Adobe Illustrator 21.0.0, SVG Export Plug-In . SVG Version: 6.00 Build 0)  -->
<svg version="1.1" id="Layer_1" xmlns="http://www.w3.org/2000/svg" xmlns:xlink="http://www.w3.org/1999/xlink" x="0px" y="0px"
	 viewBox="0 0 928 800" style="enable-background:new 0 0 928 800;" xml:space="preserve">
<style type="text/css">
	.st0{fill:#283992;}
	.st1{fill:#00A64E;}
</style>
<g>
	<g>
		<path class="st0" d="M7.9,759v-68.3c0-9.6,4-17.3,12.2-23.4c8.1-6.2,18.7-9.2,32.3-9.2h80.9v19.2H56.2c-13.6,0-20.4,4.7-20.4,14.1
			v66.3c0,4,1.9,7.4,5.9,10.1c3.9,2.8,8.7,4.2,14.4,4.2h76.5V791H50.3c-7.9,0-16-1.7-24.2-5.6C14,779.9,7.9,771,7.9,759z"/>
		<path class="st0" d="M142.7,791l64.1-120.7c4.9-9.3,12.1-13.9,21.5-13.9c10.6,0,18.4,4.6,23.3,13.9L315.3,791h-29.9l-13.9-27.8
			h-84.2L172.6,791H142.7z M260.8,743.9l-32-60.9l-31.2,60.9H260.8z"/>
		<path class="st0" d="M329,791V658.1h97.7c18.2,0,31.2,6.2,38.3,18.5c1.9,3.2,2.7,6.5,2.7,9.5v16c0,10-5.4,17.4-16.3,21.9
			c8.3,2.8,13.7,8.3,15.8,16.2c0.5,0.9,0.5,2.2,0.5,4.2v12.3c0,22.8-14.7,34.5-44.2,34.5c-2.6,0-10.3,0-23.7,0
			C384,791,360.5,791,329,791z M420.6,715.6c5.9,0,10.4-1.2,13.8-3.7c3.7-2.2,5.4-5.5,5.4-9.4v-12.9c0-6.5-5.5-10.4-16.3-12
			c-1.2-0.2-2.1-0.3-3.3-0.3h-63.6v38.3H420.6z M356.6,771.9H420c7.2,0,12.7-2.4,16.7-7.2c2-2.5,3.1-4.7,3.1-6.9v-12.6
			c0-3.8-3.5-7-10.5-9.3c-2.7-0.8-5.8-1.3-8.8-1.3h-63.9V771.9z"/>
		<path class="st0" d="M499.4,757.6v-99.5h27.8v99.5c0,5.3,1.8,9,5.4,11.2c3.5,2,9.3,3.2,17.1,3.2h72.9V791h-72.4
			c-16,0-28.6-2.7-37.1-8.2C503.9,777,499.4,768.7,499.4,757.6z"/>
		<path class="st0" d="M640.9,755.4v-64.1c0-12.1,5.1-20.9,15.4-26.3c9.1-4.6,22.7-6.9,40.8-6.9h70.2v19.2h-80.9
			c-5.1,0-9.1,1.4-12.5,4.5c-3.3,3.1-5,6.4-5,10.1v22.6h98.3v19.2h-98.3v26.3c0,1.3,0.4,2.6,1.4,3.8c2.6,4.1,7,6.6,12.3,7.5
			c2.8,0.5,8.4,0.8,17,0.8h67.1V791h-74.6C657.9,791,640.9,779.1,640.9,755.4z"/>
		<path class="st0" d="M792.4,791v-19.1h76.4c0.5,0,1,0,1.6,0h1.5c3.9-0.3,7.4-1.4,10.6-3.6c3.2-2,4.8-4.7,4.8-7.4v-17.1
			c0-6.4-5.7-10.2-17.2-11c-0.5-0.1-1.5-0.1-3.1-0.1h-28.8c-11.9,0-22.4-2.4-31.3-7.2c-9.6-5-14.4-11.7-14.4-19.8v-16.8
			c0-13.9,7.9-23.2,23.9-28.5c5-1.6,12.4-2.3,22.3-2.3h77.9v19.2h-80.4c-0.5,0.1-1.1,0.1-1.4,0.1c-9.6,1-14.3,4.6-14.3,10.7v13.1
			c0,9.3,6,13.8,18.1,13.8H872c8.5,0,16.3,1.5,23.6,4.5c13.1,5.3,19.6,12.3,19.6,21.4v20.8c0,10.3-5.9,18.4-17.9,24
			c-7.4,3.7-16,5.4-25.3,5.4H792.4z"/>
	</g>
	<polygon class="st0" points="274.9,407 467.4,618.5 18,618.5 18,191.4 467.4,191.4 	"/>
	<g>
		<path class="st1" d="M910,197.7H513.8L345.7,384.1c-1.4,5-2,10.1-2,15.2c0,6.6,1.1,13,3,19.3l176.7,200.1H910L717.4,404.9
			L910,197.7z"/>
	</g>
	<g>
		<path class="st0" d="M11.3,11.3h30.1v133H11.3V11.3z M49.5,66.8c-3.9,3.1-5.9,5.9-5.9,8.4c0,3.7,4.2,8.7,12.5,15.4l68.7,53.7
			l39.7,0.1L76.8,76l83.6-64.7h-39.5L57.6,60.2L49.5,66.8z"/>
		<path class="st0" d="M180,108.6v-64c0-12.1,5.6-21,16.9-26.2c9.6-4.8,24.4-7,44.2-7h76.7v19.1h-88.4c-5.6,0-10.3,1.6-13.9,4.5
			c-3.7,3.2-5.4,6.4-5.4,10.1v22.6h107.3v19.2H210.3V113c0,1.5,0.4,2.8,1.4,4c3,3.8,7.5,6.4,13.5,7.5c2.9,0.5,9.1,0.7,18.7,0.7H317
			v19.1h-81C198.6,144.3,180,132.4,180,108.6z"/>
		<path class="st0" d="M350.4,110.8V11.3h30.1v99.4c0,5.4,2,9.1,6,11.2c3.9,2.2,10,3.2,18.7,3.2h79.4v19.1h-78.8
			c-17.5,0-31-2.8-40.4-8.2C355.5,130.2,350.4,122,350.4,110.8z"/>
		<path class="st0" d="M484,144.3l69.6-120.8c5.6-9.2,13.3-14,23.5-14c11.5,0,20.1,4.8,25.4,13.9l69.2,120.8h-32.2l-16.1-27.9h-91.1
			l-16.1,27.9H484z M612,97.3l-34.8-60.6l-33.9,60.6H612z"/>
		<path class="st0" d="M687.4,144.3V29.4c0-13.2,8.3-19.9,25-19.9c3,0,6.1,0.4,9.8,0.9c7.9,1.2,14.2,5.5,18.8,13l63.7,98.5V11.3
			h30.1v117.1c0,4.5-2.2,8.4-6.4,11.9c-4.5,3.3-10.2,5.3-17.5,5.7c-13.4,1.1-23.2-3.4-29.9-13.3l-63.4-95.9v107.5H687.4z"/>
		<path class="st0" d="M871.4,144.3v-133h30v133H871.4z"/>
	</g>
</g>
</svg>
