<?xml version="1.0" encoding="utf-8"?>
<!-- Generator: Adobe Illustrator 21.0.0, SVG Export Plug-In . SVG Version: 6.00 Build 0)  -->
<svg version="1.1" id="Layer_1" xmlns="http://www.w3.org/2000/svg" xmlns:xlink="http://www.w3.org/1999/xlink" x="0px" y="0px"
	 viewBox="0 0 52 52" style="enable-background:new 0 0 52 52;" xml:space="preserve">
<style type="text/css">
	.st0{fill:#FFFFFF;}
</style>
<path class="st0" d="M15.1,2.1c0.9,0,1.7,0.7,1.7,1.6c0,0,0,0.1,0,0.1v1.1c0,0.9-0.7,1.7-1.6,1.7c0,0-0.1,0-0.1,0H10
	C8.2,6.6,6.7,8,6.6,9.8V42c0,1.8,1.4,3.3,3.2,3.4H42c1.8,0,3.3-1.4,3.4-3.2v-5.3c0-0.9,0.7-1.7,1.6-1.7c0,0,0.1,0,0.1,0h1.1
	c0.9,0,1.7,0.7,1.7,1.6c0,0,0,0.1,0,0.1v6.2c0,3.8-3,6.8-6.8,6.8H8.9c-3.8,0-6.8-3-6.8-6.8V8.9c0-3.8,3-6.8,6.8-6.8H15.1z"/>
<g>
	<path class="st0" d="M29.7,4.9l8.4,0.2c0.6,0.1,1.3,0.3,1.8,0.7l0,0l3.3,3.3l3.3,3.3c0.5,0.5,0.7,1.1,0.7,1.8l0,0l0.2,8.4
		c0,0.7-0.2,1.4-0.7,1.9l0,0L32.9,38.4c-1,1-2.6,1-3.6,0c0,0,0,0,0,0l0,0l-7.6-7.6l-7.6-7.6c-1-1-1-2.6,0-3.6c0,0,0,0,0,0l0,0
		L27.9,5.7C28.4,5.2,29,4.9,29.7,4.9z M25,18.4l-1.4,1.4c-0.2,0.3-0.2,0.6,0,0.9l8.1,8.1c0.3,0.2,0.6,0.2,0.9,0l1.4-1.4
		c0.2-0.3,0.2-0.6,0-0.9l-8.1-8.1c-0.2-0.2-0.5-0.3-0.8-0.1C25.1,18.3,25,18.4,25,18.4z M28.8,14.6L27.5,16c-0.2,0.3-0.2,0.6,0,0.9
		l8.1,8.1c0.3,0.2,0.6,0.2,0.9,0l1.4-1.4c0.2-0.3,0.2-0.6,0-0.9l-8.1-8.1C29.5,14.3,29.2,14.3,28.8,14.6z M41.9,10.5
		c-1-1-2.6-1-3.6,0s-1,2.6,0,3.6c1,1,2.6,1,3.6,0c0,0,0,0,0,0C42.9,13.1,42.9,11.5,41.9,10.5C41.9,10.5,41.9,10.5,41.9,10.5z"/>
</g>
</svg>
